<svg xmlns="http://www.w3.org/2000/svg" viewBox="0 0 12 12" width="32" height="32" shape-rendering="crispEdges">
<rect fill="#1a1a2e" width="12" height="12"/>
<rect fill="#0d0e1a" x="5" y="0" width="1" height="1"/><rect fill="#0d0e1a" x="6" y="0" width="1" height="1"/>
<rect fill="#0d0e1a" x="4" y="1" width="1" height="1"/><rect fill="#4fc3f7" x="5" y="1" width="1" height="1"/><rect fill="#4fc3f7" x="6" y="1" width="1" height="1"/><rect fill="#0d0e1a" x="7" y="1" width="1" height="1"/>
<rect fill="#0d0e1a" x="3" y="2" width="1" height="1"/><rect fill="#4fc3f7" x="4" y="2" width="4" height="1"/><rect fill="#0d0e1a" x="8" y="2" width="1" height="1"/>
<rect fill="#0d0e1a" x="3" y="3" width="1" height="1"/><rect fill="#4fc3f7" x="4" y="3" width="1" height="1"/><rect fill="#ffffff" x="5" y="3" width="2" height="1"/><rect fill="#4fc3f7" x="7" y="3" width="1" height="1"/><rect fill="#0d0e1a" x="8" y="3" width="1" height="1"/>
<rect fill="#0d0e1a" x="3" y="4" width="1" height="1"/><rect fill="#4fc3f7" x="4" y="4" width="4" height="1"/><rect fill="#0d0e1a" x="8" y="4" width="1" height="1"/>
<rect fill="#0d0e1a" x="4" y="5" width="1" height="1"/><rect fill="#4fc3f7" x="5" y="5" width="2" height="1"/><rect fill="#0d0e1a" x="7" y="5" width="1" height="1"/>
<rect fill="#0d0e1a" x="3" y="6" width="1" height="1"/><rect fill="#0288d1" x="4" y="6" width="1" height="1"/><rect fill="#4fc3f7" x="5" y="6" width="2" height="1"/><rect fill="#0288d1" x="7" y="6" width="1" height="1"/><rect fill="#0d0e1a" x="8" y="6" width="1" height="1"/>
<rect fill="#0d0e1a" x="2" y="7" width="1" height="1"/><rect fill="#0288d1" x="3" y="7" width="1" height="1"/><rect fill="#4fc3f7" x="4" y="7" width="4" height="1"/><rect fill="#0288d1" x="8" y="7" width="1" height="1"/><rect fill="#0d0e1a" x="9" y="7" width="1" height="1"/>
<rect fill="#0d0e1a" x="2" y="8" width="1" height="1"/><rect fill="#0288d1" x="3" y="8" width="1" height="1"/><rect fill="#4fc3f7" x="4" y="8" width="4" height="1"/><rect fill="#0288d1" x="8" y="8" width="1" height="1"/><rect fill="#0d0e1a" x="9" y="8" width="1" height="1"/>
<rect fill="#0d0e1a" x="3" y="9" width="1" height="1"/><rect fill="#4fc3f7" x="4" y="9" width="4" height="1"/><rect fill="#0d0e1a" x="8" y="9" width="1" height="1"/>
<rect fill="#0d0e1a" x="3" y="10" width="1" height="1"/><rect fill="#4fc3f7" x="4" y="10" width="1" height="1"/><rect fill="#4fc3f7" x="7" y="10" width="1" height="1"/><rect fill="#0d0e1a" x="8" y="10" width="1" height="1"/>
<rect fill="#0d0e1a" x="3" y="11" width="2" height="1"/><rect fill="#0d0e1a" x="7" y="11" width="2" height="1"/>
</svg>
